<?xml version="1.0" encoding="UTF-8"?>
<svg xmlns="http://www.w3.org/2000/svg" width="200" height="40" viewBox="0 0 200 40" fill="none">
  <g id="Group">
    <g id="Group_2">
      <path id="Vector" d="M65.5234 26.8242V4.71753H72.9946V22.6939H84.9727V26.8242H65.5234Z" fill="#007D61"></path>
    </g>
    <g id="Group_3">
      <path id="Vector_2" d="M104.423 15.3743H96.001V19.2992H104.423V15.3743Z" fill="#007D61"></path>
    </g>
    <g id="Group_4">
      <path id="Vector_3" d="M86.7539 26.8242V8.1123H107.697V12.2426H94.2251V22.694H107.697V26.8242H86.7539Z" fill="#007D61"></path>
    </g>
    <g id="Group_5">
      <path id="Vector_4" d="M127.503 16.6462C129.17 18.5186 136.345 26.7393 136.345 26.7393H145.717L136.962 18.3866C141.198 17.606 144.878 15.3145 144.878 11.0659C144.878 7.35682 140.679 4.54883 133.64 4.54883H118.216V26.7393H126.392V7.99281H132.109C135.048 7.99281 136.703 9.85363 136.703 11.4012C136.703 13.5857 135.06 15.3145 132.109 15.3145H127.49V16.6337L127.503 16.6462Z" fill="#007D61"></path>
    </g>
    <g id="Group_6">
      <path id="Vector_5" d="M162.078 22.8512L160.324 22.9717C160.015 22.9947 159.695 23.0073 159.361 23.0073C154.792 23.0073 151.841 20.8227 151.841 17.45C151.841 16.2262 152.199 15.1701 152.927 14.3057C152.902 14.3298 157.694 9.01343 157.694 9.01343L158.843 7.74146L157.101 7.87347C149.507 8.47279 144.975 12.0498 144.975 17.45C144.975 22.8512 149.766 26.6556 157.781 27.0998L158.114 27.1239L158.337 26.884L162.066 22.8638L162.078 22.8512Z" fill="#007D61"></path>
    </g>
    <g id="Group_7">
      <path id="Vector_6" d="M160.858 7.83667H160.513L160.291 8.06508L156.672 12.0853L158.388 11.9648C158.71 11.9407 159.031 11.9292 159.364 11.9292C163.934 11.9292 166.884 14.1012 166.884 17.4614C166.884 18.902 166.379 20.1143 165.39 21.0625L165.366 21.0866V21.1107L160.994 25.9346L159.846 27.2076L161.587 27.0756C169.193 26.4752 173.738 22.8867 173.738 17.474C173.738 12.0612 168.922 8.25682 160.846 7.84924L160.858 7.83667Z" fill="#007D61"></path>
    </g>
    <g id="Group_8">
      <path id="Vector_7" d="M199.686 8.11279H191.14L185.312 14.7619L179.693 8.11279H171.159L181.348 19.0702V26.8237H188.806V19.3584L199.686 8.11279Z" fill="#007D61"></path>
    </g>
    <g id="Group_9">
      <path id="Vector_8" d="M99.0624 30.8203H96.9629V37.3133H99.0624V30.8203Z" fill="#007D61"></path>
    </g>
    <g id="Group_10">
      <path id="Vector_9" d="M104.717 33.3162C106.064 33.3162 106.755 33.9407 106.755 34.8889C106.755 35.8371 106.064 36.4731 104.717 36.4731C103.371 36.4731 102.68 35.8371 102.68 34.8889C102.68 33.9407 103.371 33.3162 104.717 33.3162ZM104.717 32.3564C102.087 32.3564 100.58 33.4126 100.58 34.8889C100.58 36.3641 102.087 37.4203 104.717 37.4203C107.348 37.4203 108.854 36.3641 108.854 34.8889C108.854 33.4126 107.348 32.3564 104.717 32.3564Z" fill="#007D61"></path>
    </g>
    <g id="Group_11">
      <path id="Vector_10" d="M115.885 34.9726C115.885 35.7166 115.082 36.4133 114.008 36.4133C112.798 36.4133 112.131 35.8611 112.131 34.9485C112.131 34.036 112.86 33.3046 114.86 33.3046C115.206 33.3046 115.552 33.3402 115.898 33.4125V34.9726H115.885ZM111.081 39.3533C112.18 39.5335 113.291 39.6289 114.416 39.6289C117.083 39.6289 117.972 38.9217 117.972 37.6727V32.5607C116.985 32.4884 115.342 32.3679 114.391 32.3679C111.859 32.3679 109.995 33.2323 109.995 35.069C109.995 36.5453 111.291 37.3846 113.304 37.3846C114.391 37.3846 115.342 37.0965 115.836 36.5453L115.86 36.5212V37.2651C115.86 38.4533 114.947 38.6807 113.798 38.6807C112.798 38.6807 111.822 38.513 110.846 38.2972L111.057 39.3649L111.081 39.3533Z" fill="#007D61"></path>
    </g>
    <g id="Group_12">
      <path id="Vector_11" d="M119.957 32.4643H122.056V37.3134H119.957V32.4643ZM119.933 30.7722H122.081V31.6722H119.933V30.7722Z" fill="#007D61"></path>
    </g>
    <g id="Group_13">
      <path id="Vector_12" d="M123.639 36.1608C124.342 36.341 125.059 36.5212 125.8 36.5212C126.269 36.5212 126.936 36.4007 126.936 36.077C126.936 35.3446 123.886 34.805 123.886 33.5802C123.886 33.2564 124.12 32.3679 126.689 32.3679C127.429 32.3679 128.183 32.4402 128.912 32.524L129.072 33.5205C128.566 33.3884 127.701 33.2679 127.134 33.2679C126.775 33.2679 126.145 33.3402 126.145 33.664C126.145 34.2885 129.196 34.9129 129.196 36.209C129.196 37.1206 127.565 37.4328 126.294 37.4328C125.478 37.4328 124.651 37.349 123.873 37.2285L123.639 36.1734V36.1608Z" fill="#007D61"></path>
    </g>
    <g id="Group_14">
      <path id="Vector_13" d="M135.099 32.4517V33.424H133.209V35.5729C133.209 36.0643 133.395 36.3891 134.148 36.3891C134.519 36.3891 134.901 36.365 135.259 36.3043L135.012 37.2766C134.481 37.373 133.951 37.4212 133.334 37.4212C131.889 37.4212 131.111 37.1205 131.111 36.1607V33.4125H130.061V32.4517H131.111V31.6124L133.209 31.2876V32.4517H135.099Z" fill="#007D61"></path>
    </g>
    <g id="Group_15">
      <path id="Vector_14" d="M136.356 32.4643H138.456V37.3134H136.356V32.4643ZM136.332 30.7722H138.481V31.6722H136.332V30.7722Z" fill="#007D61"></path>
    </g>
    <g id="Group_16">
      <path id="Vector_15" d="M145.9 34.9726C145.9 35.7166 145.11 36.473 144.035 36.473C142.838 36.473 142.171 35.8611 142.171 34.9601C142.171 34.0611 142.887 33.3161 144.875 33.3161C145.221 33.3161 145.567 33.3528 145.913 33.4241V34.9726H145.9ZM145.888 39.4969H148V32.5607C147.011 32.4884 145.37 32.3679 144.431 32.3679C141.923 32.3679 140.06 33.2323 140.06 35.0565C140.06 36.4605 141.443 37.4328 143.381 37.4328C144.468 37.4328 145.382 37.0965 145.864 36.5684L145.888 36.5453V39.4969Z" fill="#007D61"></path>
    </g>
    <g id="Group_17">
      <path id="Vector_16" d="M155.361 36.5087L155.336 36.4846C154.781 37.2044 153.793 37.4203 152.545 37.4203C150.965 37.4203 149.828 37.0368 149.828 35.8601V32.4644H151.928V35.6087C151.928 35.9324 152.434 36.3411 153.238 36.3411C154.645 36.3411 155.374 35.8486 155.374 34.8648V32.4759H157.473V37.3249H155.374V36.5213L155.361 36.5087Z" fill="#007D61"></path>
    </g>
    <g id="Group_18">
      <path id="Vector_17" d="M161.005 34.3245C161.079 33.6885 161.696 33.1845 162.783 33.1845C163.944 33.1845 164.426 33.6287 164.426 34.3245H161.005ZM165.858 36.2209C165.068 36.3885 164.253 36.5331 163.401 36.5331C162.043 36.5331 161.017 36.0281 161.017 35.1407V34.9845H166.426V34.6C166.426 33.0158 164.821 32.3557 162.795 32.3557C160.202 32.3557 158.918 33.4129 158.918 34.9122C158.918 36.4126 160.425 37.4206 163.043 37.4206C164.08 37.4206 164.87 37.3493 165.673 37.2404L165.87 36.2209H165.858Z" fill="#007D61"></path>
    </g>
    <g id="Group_19">
      <path id="Vector_18" d="M15.9424 20.5706V0H24.3895V24.5553L5.22304 39.2092L0 32.7404L15.9424 20.5706Z" fill="#007D61"></path>
    </g>
    <g id="Group_20">
      <path id="Vector_19" d="M36.6649 20.5706V0H28.2178V24.5553L47.3843 39.2092L52.6073 32.7404L36.6649 20.5706Z" fill="#007D61"></path>
    </g>
  </g>
</svg>
